<svg width="391" height="371" viewBox="0 0 391 371" fill="none" xmlns="http://www.w3.org/2000/svg">
<rect y="119" width="244" height="252" rx="20" fill="#FFEEEB"/>
<rect x="255" width="123" height="119" rx="20" fill="#FFEEEB"/>
<g filter="url(#filter0_d_0_1)">
<rect x="89" y="54" width="233" height="242" rx="20" fill="white"/>
</g>
<path d="M140.076 139.939L139.992 121.124C140.034 125.872 143.018 130.62 148.985 134.17L150.162 134.836L150.246 153.651L149.069 152.985C143.102 149.435 140.076 144.687 140.076 139.939Z" fill="url(#paint0_linear_0_1)" stroke="#A2CDFF" stroke-width="2" stroke-miterlimit="10"/>
<path d="M284.722 135.279L284.806 154.094C284.848 160.263 281.276 166.431 274.048 171.401L273.964 152.586C281.192 147.66 284.764 141.447 284.722 135.279Z" fill="url(#paint1_linear_0_1)" stroke="#A2CDFF" stroke-width="2" stroke-miterlimit="10"/>
<path d="M132.554 170.602L132.47 151.787C132.512 156.535 135.495 161.283 141.463 164.833C143.544 166.062 145.741 167.058 148.018 167.806L148.102 186.621C145.825 185.873 143.628 184.877 141.547 183.648C135.579 180.054 132.554 175.35 132.554 170.602Z" fill="url(#paint2_linear_0_1)" stroke="#A2CDFF" stroke-width="2" stroke-miterlimit="10"/>
<path d="M303.17 176.859L303.254 195.674C303.296 202.197 299.262 208.764 291.193 213.823C276.485 223.009 253.414 224.074 236.899 216.929L236.815 198.114C253.33 205.259 276.443 204.194 291.109 195.008C299.178 189.949 303.212 183.382 303.17 176.859Z" fill="url(#paint3_linear_0_1)" stroke="#A2CDFF" stroke-width="2" stroke-miterlimit="10"/>
<path d="M144.32 198.558L144.236 179.743C144.278 187.819 149.405 195.896 159.575 202.019C179.83 214.134 212.357 213.867 232.276 201.398C233.851 200.419 235.367 199.337 236.815 198.159L236.899 216.974C235.451 218.152 233.935 219.234 232.36 220.213C212.441 232.682 179.872 232.949 159.659 220.834C149.489 214.711 144.362 206.634 144.32 198.558Z" fill="url(#paint4_linear_0_1)" stroke="#A2CDFF" stroke-width="2" stroke-miterlimit="10"/>
<path d="M272.157 117.086C288.252 126.715 288.882 142.335 273.964 152.586C280.057 153.739 285.772 155.781 290.605 158.665C307.12 168.561 307.373 184.846 291.067 195.008C276.359 204.194 253.288 205.259 236.773 198.114C235.325 199.293 233.809 200.375 232.234 201.354C212.315 213.823 179.746 214.089 159.533 201.975C144.236 192.834 140.37 179.255 147.934 167.762C145.657 167.014 143.46 166.018 141.379 164.789C129.528 157.689 129.36 146.018 141.042 138.741C143.885 137.007 146.939 135.693 150.12 134.836L148.943 134.17C137.092 127.07 136.924 115.399 148.607 108.122C160.289 100.844 179.368 100.667 191.219 107.767L193.068 108.965C203.49 102.442 220.425 102.309 230.931 108.566C231.869 109.119 232.767 109.741 233.621 110.429C247.068 108.61 261.651 110.784 272.157 117.086Z" fill="url(#paint5_linear_0_1)" stroke="url(#paint6_linear_0_1)" stroke-width="2" stroke-miterlimit="10"/>
<path opacity="0.4" d="M231.099 152.985C248.413 163.413 248.623 180.498 231.604 191.192C214.584 201.886 186.68 202.152 169.366 191.724C152.053 181.296 151.843 164.212 168.862 153.518C185.882 142.823 213.786 142.557 231.099 152.985Z" stroke="#8A9ADC" stroke-width="2" stroke-linecap="round" stroke-linejoin="round"/>
<path opacity="0.2" d="M234.293 150.988C253.414 162.481 253.624 181.341 234.84 193.144C216.055 204.948 185.293 205.214 166.173 193.721C147.052 182.228 146.842 163.369 165.626 151.565C184.411 139.761 215.172 139.495 234.293 150.988Z" stroke="#8A9ADC" stroke-width="2" stroke-linecap="round" stroke-linejoin="round"/>
<path d="M239.504 95.4306C239.294 89.3069 235.134 82.9613 227.485 78.3463C211.852 68.9831 186.764 69.1606 171.384 78.8344C163.735 83.6269 160.037 89.8838 160.079 96.0963L160.625 171.8C160.667 178.323 164.24 184.935 172.434 189.861C188.067 199.224 213.239 199.002 228.662 189.373C236.773 184.314 240.092 177.968 240.05 171.09V165.41L239.504 95.3863V95.4306Z" fill="white"/>
<path opacity="0.3" d="M227.485 78.3463C243.118 87.7094 243.286 103.152 227.948 112.781C212.609 122.411 187.479 122.633 171.846 113.269C156.213 103.906 156.045 88.4638 171.384 78.8344C186.722 69.205 211.853 68.9388 227.485 78.3463Z" fill="url(#paint7_linear_0_1)"/>
<path opacity="0.4" d="M239.504 95.4306C239.588 101.643 235.764 107.9 228.074 112.737C212.651 122.366 187.605 122.588 171.93 113.225C164.071 108.521 160.163 102.353 160.163 96.0962H160.079L160.625 171.8C160.667 178.323 164.24 184.935 172.434 189.861C188.067 199.224 213.239 199.002 228.662 189.372C236.773 184.314 240.092 177.968 240.05 171.09V165.41L239.504 95.3862V95.4306Z" fill="url(#paint8_linear_0_1)"/>
<g opacity="0.2">
<path d="M239.798 114.512C240.063 116.837 239.863 119.196 239.21 121.434C238.528 123.714 237.444 125.836 236.016 127.691C234.595 129.518 232.957 131.144 231.141 132.528C229.352 133.896 227.454 135.099 225.468 136.123C221.51 138.146 217.333 139.651 213.029 140.604C204.447 142.522 195.59 142.613 186.974 140.871C182.652 140.015 178.446 138.599 174.451 136.655C172.438 135.667 170.512 134.494 168.694 133.149C166.862 131.771 165.208 130.145 163.777 128.313L163.525 127.957L163.273 127.602L162.769 126.893L161.886 125.384C161.608 124.865 161.356 124.332 161.13 123.786L160.794 122.988L160.499 122.144C159.774 119.922 159.53 117.557 159.785 115.222C159.779 115.145 159.803 115.07 159.85 115.011C159.897 114.953 159.965 114.917 160.037 114.911C160.11 114.905 160.181 114.93 160.236 114.98C160.292 115.03 160.326 115.101 160.331 115.177V115.177C160.457 115.71 160.499 116.287 160.625 116.819L160.794 117.618L161.004 118.417C161.075 118.673 161.159 118.925 161.256 119.171L161.55 119.926L161.886 120.636L162.222 121.346C163.16 123.215 164.365 124.921 165.794 126.404C167.224 127.896 168.802 129.22 170.501 130.354C172.217 131.506 174.015 132.515 175.88 133.371C179.668 135.079 183.63 136.315 187.689 137.054C189.719 137.445 191.767 137.727 193.824 137.898C195.897 138.075 197.957 138.164 200.002 138.164C202.047 138.164 204.106 138.06 206.179 137.853L207.734 137.676L209.289 137.454L210.802 137.188L212.315 136.921C216.368 136.153 220.319 134.871 224.081 133.105C225.934 132.217 227.718 131.179 229.418 129.999C231.113 128.844 232.678 127.489 234.083 125.961C235.481 124.44 236.631 122.686 237.487 120.769C237.599 120.524 237.697 120.272 237.781 120.014L238.075 119.26L238.327 118.506L238.454 118.106L238.538 117.707L238.748 116.908L238.874 116.109L238.958 115.71V115.311L239.084 114.468C239.084 114.379 239.117 114.295 239.176 114.232C239.235 114.17 239.316 114.135 239.399 114.135C239.483 114.135 239.563 114.17 239.622 114.232C239.681 114.295 239.714 114.379 239.714 114.468L239.798 114.512Z" fill="#8A9ADC"/>
<path d="M239.924 132.706C240.189 135.031 239.989 137.39 239.336 139.628C238.654 141.907 237.57 144.03 236.142 145.885C234.721 147.712 233.083 149.338 231.267 150.722C229.478 152.09 227.58 153.293 225.594 154.316C221.636 156.34 217.459 157.845 213.155 158.798C204.574 160.716 195.716 160.807 187.1 159.064C182.778 158.209 178.572 156.793 174.577 154.849C172.564 153.861 170.638 152.688 168.82 151.343C166.975 149.982 165.308 148.371 163.861 146.551L163.609 146.196L163.357 145.841L162.853 145.131L161.97 143.622C161.692 143.103 161.44 142.57 161.214 142.024L160.878 141.226L160.583 140.382C159.858 138.16 159.614 135.795 159.869 133.46C159.866 133.422 159.871 133.384 159.882 133.348C159.893 133.312 159.911 133.278 159.934 133.25C159.958 133.221 159.986 133.197 160.018 133.18C160.05 133.163 160.085 133.152 160.121 133.149C160.157 133.146 160.193 133.151 160.227 133.163C160.261 133.175 160.293 133.193 160.32 133.218C160.348 133.243 160.37 133.273 160.387 133.307C160.403 133.341 160.413 133.378 160.415 133.416V133.416C160.541 133.948 160.583 134.525 160.71 135.057L160.878 135.856L161.088 136.655C161.159 136.911 161.243 137.163 161.34 137.409L161.634 138.164L161.97 138.874L162.306 139.584C163.244 141.453 164.449 143.16 165.878 144.642C167.308 146.134 168.886 147.458 170.585 148.592C172.301 149.744 174.1 150.753 175.964 151.609C179.752 153.317 183.715 154.553 187.773 155.292C189.803 155.683 191.851 155.965 193.908 156.136C195.981 156.313 198.041 156.402 200.086 156.402C202.131 156.402 204.19 156.298 206.263 156.091L207.818 155.914L209.373 155.692L210.886 155.426L212.399 155.159C216.452 154.391 220.403 153.11 224.165 151.343C226.018 150.455 227.802 149.417 229.502 148.237C231.197 147.082 232.762 145.727 234.167 144.199C235.565 142.678 236.715 140.924 237.571 139.007C237.683 138.762 237.781 138.51 237.865 138.252L238.159 137.498L238.412 136.744L238.538 136.344L238.622 135.945L238.832 135.146L238.958 134.347L239.042 133.948V133.549L239.168 132.706C239.168 132.617 239.201 132.533 239.26 132.47C239.319 132.408 239.4 132.373 239.483 132.373C239.567 132.373 239.647 132.408 239.706 132.47C239.765 132.533 239.798 132.617 239.798 132.706H239.924Z" fill="#8A9ADC"/>
<path d="M240.008 151.166C240.253 153.515 240.009 155.893 239.294 158.133C238.584 160.399 237.503 162.517 236.1 164.389C234.69 166.253 233.05 167.909 231.225 169.315C230.323 170.008 229.382 170.645 228.41 171.223L226.939 172.066L225.468 172.865C221.495 174.877 217.304 176.367 212.987 177.303C210.835 177.777 208.661 178.132 206.473 178.367C204.288 178.604 202.103 178.737 199.918 178.767C197.732 178.767 195.547 178.678 193.362 178.456C191.177 178.234 188.992 177.924 186.848 177.48C182.507 176.582 178.286 175.121 174.283 173.131L172.812 172.333L171.342 171.489C170.365 170.885 169.425 170.218 168.526 169.492C166.728 168.048 165.13 166.345 163.777 164.434C162.424 162.525 161.373 160.397 160.667 158.133C159.965 155.905 159.721 153.545 159.953 151.21C159.975 151.152 160.013 151.103 160.061 151.068C160.11 151.033 160.167 151.015 160.226 151.015C160.285 151.015 160.342 151.033 160.391 151.068C160.44 151.103 160.478 151.152 160.499 151.21V151.21C161.178 155.518 163.049 159.518 165.878 162.703C167.232 164.276 168.755 165.676 170.417 166.874C171.243 167.47 172.099 168.018 172.98 168.516L174.325 169.271L175.712 169.981C179.497 171.717 183.459 172.983 187.521 173.753C189.538 174.152 191.597 174.418 193.698 174.64C195.799 174.862 197.859 174.951 199.918 174.951C201.977 174.951 204.078 174.862 206.137 174.684C208.209 174.498 210.271 174.202 212.315 173.797C216.396 173.035 220.376 171.753 224.165 169.981C227.906 168.161 231.436 165.898 234.209 162.792C234.908 162.013 235.554 161.182 236.142 160.307C236.725 159.432 237.244 158.512 237.697 157.556C238.606 155.589 239.189 153.473 239.42 151.299C239.42 151.21 239.453 151.126 239.512 151.063C239.572 151.001 239.652 150.966 239.735 150.966C239.819 150.966 239.899 151.001 239.958 151.063C240.017 151.126 240.05 151.21 240.05 151.299L240.008 151.166Z" fill="#8A9ADC"/>
<path d="M197.312 141.048L198.363 142.335L198.615 144.421L198.699 155.559L198.069 156.491L197.018 157.334C197.018 157.334 197.564 159.908 197.732 159.996H198.027C198.554 160.02 199.08 159.931 199.574 159.735C200.068 159.538 200.519 159.238 200.9 158.852C201.28 158.466 201.583 158.003 201.79 157.491C201.997 156.978 202.103 156.427 202.103 155.869L202.019 142.335C202.008 141.263 201.603 140.238 200.89 139.476C200.176 138.714 199.209 138.275 198.195 138.253H197.69L197.312 141.048Z" fill="#8A9ADC"/>
<path d="M234.713 143.977L233.831 144.909C233.047 145.69 232.422 146.632 231.996 147.678C231.569 148.723 231.35 149.85 231.352 150.988L231.436 163.591C231.434 164.071 231.571 164.54 231.829 164.935C232.087 165.33 232.453 165.633 232.878 165.802C233.304 165.971 233.768 165.999 234.209 165.881C234.649 165.763 235.046 165.506 235.344 165.144C235.877 164.494 236.355 163.796 236.773 163.058C238.664 159.73 239.756 156.358 239.714 152.763L239.546 131.064C239.672 135.723 238.159 140.072 234.713 143.977Z" fill="#8A9ADC"/>
</g>
<path d="M160.331 153.473C160.373 159.996 163.945 166.608 172.182 171.534C187.815 180.897 213.029 180.675 228.41 171.046C229.484 170.382 230.522 169.656 231.52 168.871C232.775 167.891 233.956 166.808 235.05 165.632" stroke="white" stroke-width="2" stroke-linecap="round" stroke-linejoin="round"/>
<path opacity="0.4" d="M160.289 150.101C160.331 156.624 163.903 163.236 172.14 168.161C187.773 177.524 212.987 177.302 228.368 167.673C229.442 167.009 230.48 166.283 231.478 165.499C231.659 165.405 231.817 165.268 231.94 165.099" stroke="#8A9ADC" stroke-width="2" stroke-linecap="round" stroke-linejoin="round"/>
<path d="M231.394 150.544C230.396 151.329 229.357 152.055 228.284 152.719C221.056 157.245 211.684 159.686 202.145 160.041H197.943" stroke="white" stroke-width="2" stroke-linecap="round" stroke-linejoin="round"/>
<path opacity="0.4" d="M202.103 156.668C211.642 156.313 221.014 153.872 228.242 149.346C229.315 148.682 230.354 147.957 231.352 147.172C232.309 146.402 233.221 145.573 234.083 144.687" stroke="#8A9ADC" stroke-width="2" stroke-linecap="round" stroke-linejoin="round"/>
<path d="M239.798 152.763C239.84 156.402 238.748 159.73 236.857 163.058C236.439 163.796 235.961 164.494 235.428 165.144C235.13 165.506 234.734 165.763 234.293 165.881C233.852 165.999 233.388 165.971 232.962 165.802C232.537 165.633 232.171 165.33 231.913 164.935C231.655 164.54 231.518 164.071 231.52 163.591L231.436 150.988C231.434 149.85 231.653 148.723 232.08 147.678C232.506 146.632 233.131 145.69 233.915 144.909L234.797 143.977C238.243 140.072 239.756 135.679 239.714 131.064" stroke="#8A9ADC" stroke-width="2" stroke-linecap="round" stroke-linejoin="round"/>
<path d="M239.756 149.391C239.809 153.724 238.376 157.932 235.722 161.239C235.657 161.318 235.571 161.375 235.475 161.402C235.379 161.43 235.277 161.427 235.183 161.393C235.089 161.36 235.006 161.298 234.945 161.216C234.884 161.133 234.847 161.033 234.84 160.928L234.755 148.991C234.751 148.036 235.063 147.11 235.638 146.373C238.292 143.067 239.724 138.859 239.672 134.525" stroke="#19242D" stroke-width="1.42" stroke-linecap="round" stroke-linejoin="round"/>
<path d="M239.336 95.2975C239.378 102.176 236.058 108.477 227.948 113.58C212.525 123.209 187.353 123.431 171.72 114.068C163.483 109.142 159.911 102.575 159.869 96.0075" stroke="white" stroke-width="2" stroke-linecap="round" stroke-linejoin="round"/>
<path d="M239.504 116.154C239.546 123.032 236.436 129.289 228.116 134.436C220.846 138.918 211.516 141.403 201.977 141.758" stroke="white" stroke-width="2" stroke-linecap="round" stroke-linejoin="round"/>
<path d="M239.42 95.4306C239.336 89.2181 235.386 83.0056 227.569 78.3463C211.937 68.9831 186.722 69.205 171.342 78.8344C163.651 83.6712 159.827 89.9281 159.911 96.1406L160.457 171.8C160.499 178.323 164.071 184.935 172.308 189.861C187.941 199.224 213.155 199.002 228.536 189.372C236.647 184.314 239.966 177.968 239.924 171.09V165.41L239.378 95.3862L239.42 95.4306Z" stroke="#8A9ADC" stroke-width="2" stroke-linecap="round" stroke-linejoin="round"/>
<path d="M239.336 94.5875C239.378 101.466 236.058 107.767 227.948 112.87C212.525 122.499 187.353 122.721 171.72 113.358C163.483 108.432 159.911 101.865 159.869 95.2975" stroke="#8A9ADC" stroke-width="2" stroke-linecap="round" stroke-linejoin="round"/>
<path opacity="0.4" d="M239.462 112.781C239.504 119.659 236.184 125.961 228.074 131.064C220.846 135.59 211.474 138.031 201.935 138.386L197.732 138.297" stroke="#8A9ADC" stroke-width="2" stroke-linecap="round" stroke-linejoin="round"/>
<path d="M160.037 116.864C160.079 123.387 163.651 129.999 171.888 134.924C179.032 139.184 188.109 141.447 197.354 141.758C197.692 141.77 198.013 141.92 198.248 142.176C198.484 142.433 198.615 142.776 198.615 143.134L198.699 155.292C198.705 155.485 198.673 155.676 198.605 155.854C198.537 156.032 198.435 156.194 198.304 156.327C198.173 156.461 198.018 156.565 197.847 156.631C197.676 156.697 197.494 156.725 197.312 156.712C188.109 156.402 179.074 154.094 171.972 149.879C163.735 144.953 160.163 138.386 160.121 131.818" stroke="#19242D" stroke-width="1.42" stroke-linecap="round" stroke-linejoin="round"/>
<path d="M159.995 113.447C160.037 119.97 163.609 126.582 171.846 131.507C178.486 135.457 187.941 137.853 198.111 138.297C199.144 138.342 200.121 138.805 200.841 139.59C201.56 140.374 201.967 141.42 201.977 142.512L202.061 155.692C202.067 156.266 201.963 156.836 201.755 157.367C201.547 157.898 201.239 158.379 200.85 158.781C200.462 159.183 200 159.498 199.493 159.707C198.986 159.916 198.444 160.014 197.901 159.996C186.26 159.641 178.696 157.201 172.014 153.207C163.777 148.281 160.205 141.714 160.163 135.146" stroke="#8A9ADC" stroke-width="2" stroke-linecap="round" stroke-linejoin="round"/>
<path d="M221.896 82.695C234.377 89.7063 234.545 101.288 222.232 108.521C209.919 115.754 189.832 115.932 177.351 108.921C164.87 101.909 164.702 90.3275 177.015 83.0944C189.328 75.8613 209.415 75.6838 221.896 82.695Z" fill="white" stroke="#8A9ADC" stroke-width="2" stroke-linecap="round" stroke-linejoin="round"/>
<path d="M239.168 154.361C238.79 156.136 236.058 160.884 234.966 162.082C234.924 158.843 234.797 154.627 234.797 154.627L239.168 154.361Z" fill="url(#paint9_linear_0_1)"/>
<path d="M255.851 102.22L209.793 131.019L206.978 129.333L204.246 131.019L200.38 128.712L203.07 126.981L200.254 125.339L246.312 96.54L255.851 102.22Z" fill="#FFBCB2"/>
<path d="M255.851 102.22L255.893 112.071L209.835 140.871L209.793 131.019L255.851 102.22Z" fill="#FF8C83"/>
<path d="M255.851 102.22L255.893 112.071L209.835 140.871L206.978 129.333L204.246 131.019L200.38 128.712L203.07 126.981L200.254 125.339L246.312 96.54L255.851 102.22Z" stroke="#FF7A88" stroke-width="2" stroke-linecap="round" stroke-linejoin="round"/>
<path d="M279.511 103.729L223.115 138.963L220.299 137.321L217.568 139.007L213.66 136.655L216.391 134.969L213.575 133.283L269.971 98.0044L279.511 103.729Z" fill="#8CD8EB"/>
<path d="M279.511 103.729L279.553 113.58L223.157 148.814L223.115 138.963L279.511 103.729Z" fill="#5BC9E3"/>
<path d="M255.851 102.22L209.793 131.019" stroke="white" stroke-width="2" stroke-linecap="round" stroke-linejoin="round"/>
<path d="M279.511 103.729L279.553 113.58L223.157 148.814L220.299 137.321L217.568 139.007L213.66 136.655L216.391 134.969L213.575 133.283L269.971 98.0044L279.511 103.729Z" stroke="#00B0D6" stroke-width="2" stroke-linecap="round" stroke-linejoin="round"/>
<path d="M268.837 126.671L228.116 152.142L225.3 150.456L222.569 152.142L218.66 149.79L221.392 148.104L218.576 146.418L259.339 120.991L268.837 126.671Z" fill="#9EE6D7"/>
<path d="M279.511 103.729L223.115 138.963" stroke="white" stroke-width="2" stroke-linecap="round" stroke-linejoin="round"/>
<path d="M268.837 126.671L268.879 136.522L228.158 161.993L228.116 152.142L268.837 126.671Z" fill="#76DAC6"/>
<path d="M268.837 126.671L268.879 136.522L228.2 161.816L225.3 150.456L222.569 152.142L218.66 149.79L221.392 148.104L218.576 146.418L259.339 120.991L268.837 126.671Z" stroke="#40C9AD" stroke-width="2" stroke-linecap="round" stroke-linejoin="round"/>
<path d="M268.837 126.671L228.116 152.142" stroke="white" stroke-width="2" stroke-linecap="round" stroke-linejoin="round"/>
<path d="M247.237 100.401L246.522 100.844L242.656 103.241L242.026 102.841L245.934 100.489L246.606 100.046L247.237 100.401Z" fill="white"/>
<path d="M250.22 102.22L246.354 104.616L245.64 105.06L245.009 104.661L245.724 104.217L249.59 101.865L250.22 102.22Z" fill="white"/>
<path d="M247.363 99.9569V101.998H246.522V100.844L247.237 100.401L246.606 100.046L245.934 100.489H244.043V99.9569H247.363Z" fill="white"/>
<path d="M248.203 104.616V105.104H244.883V103.107H245.724V104.217L245.009 104.661L245.64 105.06L246.354 104.616H248.203Z" fill="white"/>
<path d="M275.35 103.773L270.224 106.924L269.635 106.524L274.762 103.374L275.35 103.773Z" fill="white"/>
<path d="M271.568 104.572L269.005 106.169L268.375 105.814L270.938 104.217L271.568 104.572Z" fill="white"/>
<path d="M271.568 103.063L267.744 105.415L267.156 105.06L270.98 102.708L271.568 103.063Z" fill="white"/>
<path d="M270.35 102.309L266.525 104.661L265.937 104.306L269.761 101.954L270.35 102.309Z" fill="white"/>
<path d="M270.434 100.756L265.307 103.906L264.718 103.551L269.845 100.401L270.434 100.756Z" fill="white"/>
<path d="M261.819 125.162C262.995 125.872 264.088 126.848 263.416 127.292H263.332L262.743 126.937L262.155 127.292C261.374 127.074 260.625 126.745 259.928 126.316C259.309 125.981 258.754 125.53 258.289 124.984L258.877 124.629L258.289 124.274H258.373C259.045 123.786 260.684 124.452 261.819 125.162ZM260.516 125.961C261.199 126.41 261.954 126.726 262.743 126.893C262.701 126.715 262.281 126.183 261.188 125.517C260.506 125.065 259.751 124.75 258.961 124.585C259.003 124.763 259.423 125.295 260.516 125.961Z" fill="white"/>
<path d="M261.609 127.691L260.936 128.091C260.156 127.873 259.406 127.544 258.709 127.114C258.087 126.767 257.531 126.301 257.07 125.739L257.743 125.339C257.743 125.473 258.121 126.049 259.297 126.759C259.999 127.234 260.786 127.551 261.609 127.691V127.691Z" fill="white"/>
<path d="M260.264 128.49L259.592 128.889C258.811 128.672 258.062 128.343 257.364 127.913C256.742 127.566 256.186 127.099 255.725 126.538L256.398 126.138C256.398 126.271 256.776 126.848 257.953 127.558C258.655 128.031 259.442 128.348 260.264 128.49V128.49Z" fill="white"/>
<path d="M263.332 127.336L259.507 129.688C258.793 130.132 257.196 129.422 256.019 128.712C254.843 128.002 253.75 127.026 254.423 126.582L258.247 124.23L258.835 124.585L258.247 124.94L257.658 125.295L256.986 125.694L256.356 126.094L255.683 126.493L255.011 126.893C255.011 127.026 255.389 127.603 256.566 128.313C257.269 128.785 258.055 129.102 258.877 129.244L259.55 128.845L260.222 128.446L260.852 128.046L261.525 127.647L262.113 127.292L262.701 126.937L263.332 127.336Z" fill="white"/>
<path d="M238.79 155.381C238.11 157.513 237.071 159.498 235.722 161.239C235.657 161.318 235.571 161.375 235.475 161.402C235.379 161.43 235.277 161.427 235.183 161.393C235.089 161.36 235.006 161.298 234.945 161.216C234.884 161.133 234.847 161.033 234.84 160.928L234.755 148.991C234.751 148.036 235.063 147.11 235.638 146.373C238.292 143.067 239.724 138.859 239.672 134.525L239.462 99.6019" stroke="#8A9ADC" stroke-width="2" stroke-linecap="round" stroke-linejoin="round"/>
<path d="M160.037 116.864C160.079 123.387 163.651 129.999 171.888 134.924C179.032 139.184 188.109 141.447 197.354 141.758C197.692 141.77 198.013 141.92 198.248 142.176C198.484 142.433 198.615 142.776 198.615 143.134L198.699 155.292C198.705 155.485 198.673 155.676 198.605 155.854C198.537 156.032 198.435 156.194 198.304 156.327C198.173 156.461 198.018 156.565 197.847 156.631C197.676 156.697 197.494 156.725 197.312 156.712C188.109 156.402 179.074 154.094 171.972 149.879C163.735 144.953 160.163 138.386 160.121 131.818L160.037 116.864Z" fill="white" stroke="#19242D" stroke-width="1.42" stroke-linecap="round" stroke-linejoin="round"/>
<path d="M160.037 116.864C160.079 123.387 163.651 129.999 171.888 134.924C179.032 139.184 188.109 141.447 197.354 141.758C197.692 141.77 198.013 141.92 198.248 142.176C198.484 142.433 198.615 142.776 198.615 143.134L198.699 155.292C198.705 155.485 198.673 155.676 198.605 155.854C198.537 156.032 198.435 156.194 198.304 156.327C198.173 156.461 198.018 156.565 197.847 156.631C197.676 156.697 197.494 156.725 197.312 156.712C188.109 156.402 179.074 154.094 171.972 149.879C163.735 144.953 160.163 138.386 160.121 131.818L160.037 116.864Z" fill="url(#paint10_linear_0_1)"/>
<path opacity="0.6" d="M165.374 128.224L137.428 145.574" stroke="url(#paint11_linear_0_1)" stroke-width="2" stroke-linecap="round" stroke-linejoin="round"/>
<path d="M117.761 178.323L123.771 196.251L111.878 189.106L117.761 178.323Z" fill="url(#paint12_linear_0_1)"/>
<path d="M117.761 178.323L118.812 177.613L124.821 195.585L123.771 196.251L117.761 178.323Z" fill="url(#paint13_linear_0_1)"/>
<path d="M117.383 177.169L124.149 197.36" stroke="url(#paint14_linear_0_1)" stroke-width="2" stroke-miterlimit="10"/>
<path opacity="0.6" d="M117.425 187.775L88.6387 205.658" stroke="url(#paint15_linear_0_1)" stroke-width="2" stroke-linecap="round" stroke-linejoin="round"/>
<path d="M179.914 129.422L180.04 143.799L168.106 136.744L168.022 122.366L179.914 129.422Z" fill="url(#paint16_linear_0_1)"/>
<path d="M179.914 129.422L181.007 128.756L181.133 143.134L180.04 143.799L179.914 129.422Z" fill="url(#paint17_linear_0_1)"/>
<path d="M168.022 122.366L169.072 121.701L181.007 128.756L179.914 129.422L168.022 122.366Z" fill="url(#paint18_linear_0_1)"/>
<path d="M167.475 122.056L179.914 129.422L180.082 146.639" stroke="url(#paint19_linear_0_1)" stroke-width="2" stroke-miterlimit="10"/>
<path d="M165.332 135.412L165.416 149.79L153.523 142.69L153.397 128.312L165.332 135.412Z" fill="url(#paint20_linear_0_1)"/>
<path d="M165.332 135.412L166.383 134.747L166.509 149.08L165.416 149.79L165.332 135.412Z" fill="url(#paint21_linear_0_1)"/>
<path d="M153.397 128.312L154.448 127.647L166.383 134.747L165.332 135.412L153.397 128.312Z" fill="url(#paint22_linear_0_1)"/>
<path d="M152.851 128.002L165.332 135.412L165.458 152.586" stroke="url(#paint23_linear_0_1)" stroke-width="2" stroke-miterlimit="10"/>
<path opacity="0.6" d="M130.452 166.608L177.099 137.631" stroke="url(#paint24_linear_0_1)" stroke-width="2" stroke-linecap="round" stroke-linejoin="round"/>
<path opacity="0.6" d="M159.113 139.14L142.849 149.257" stroke="url(#paint25_linear_0_1)" stroke-width="2" stroke-linecap="round" stroke-linejoin="round"/>
<path d="M139.992 161.15L140.076 175.527L128.183 168.472L128.057 154.094L139.992 161.15Z" fill="url(#paint26_linear_0_1)"/>
<path d="M139.992 161.15L141.042 160.484L141.168 174.862L140.076 175.527L139.992 161.15Z" fill="url(#paint27_linear_0_1)"/>
<path d="M128.057 154.094L129.108 153.429L141.042 160.484L139.992 161.15L128.057 154.094Z" fill="url(#paint28_linear_0_1)"/>
<path d="M127.511 153.784L139.992 161.15L140.118 178.368" stroke="url(#paint29_linear_0_1)" stroke-width="2" stroke-miterlimit="10"/>
<path d="M138.395 136.034L144.404 153.961L132.512 146.861L138.395 136.034Z" fill="url(#paint30_linear_0_1)"/>
<path d="M138.395 136.034L139.445 135.368L145.497 153.296L144.404 153.961L138.395 136.034Z" fill="url(#paint31_linear_0_1)"/>
<path d="M138.017 134.88L144.782 155.115" stroke="url(#paint32_linear_0_1)" stroke-width="2" stroke-miterlimit="10"/>
<path opacity="0.6" d="M133.52 164.7L96.4971 187.731" stroke="url(#paint33_linear_0_1)" stroke-width="2" stroke-linecap="round" stroke-linejoin="round"/>
<path d="M193.404 136.655L199.413 154.582L187.521 147.482L193.404 136.655Z" fill="url(#paint34_linear_0_1)"/>
<path d="M193.404 136.655L194.455 135.989L200.464 153.917L199.413 154.582L193.404 136.655Z" fill="url(#paint35_linear_0_1)"/>
<path d="M192.984 135.501L199.792 155.736" stroke="url(#paint36_linear_0_1)" stroke-width="2" stroke-miterlimit="10"/>
<path opacity="0.6" d="M153.439 170.158L191.975 146.196" stroke="url(#paint37_linear_0_1)" stroke-width="2" stroke-linecap="round" stroke-linejoin="round"/>
<path opacity="0.6" d="M184.537 139.051L80.444 203.706" stroke="url(#paint38_linear_0_1)" stroke-width="2" stroke-linecap="round" stroke-linejoin="round"/>
<path d="M181.091 149.79C179.452 148.814 177.939 148.725 176.889 149.391L175.838 150.056C176.889 149.391 178.402 149.479 180.04 150.456C183.318 152.408 186.008 157.245 186.008 161.194C186.008 163.147 185.377 164.567 184.327 165.232L185.377 164.567C186.428 163.901 187.1 162.526 187.058 160.529C187.058 156.535 184.411 151.742 181.091 149.79Z" fill="url(#paint39_linear_0_1)"/>
<path d="M180.04 150.456C183.318 152.408 186.008 157.245 186.008 161.194C186.008 165.144 183.36 166.786 180.082 164.833C176.805 162.881 174.157 158.044 174.115 154.05C174.073 150.056 176.763 148.459 180.04 150.456Z" fill="url(#paint40_linear_0_1)"/>
<path d="M175.208 150.234C176.384 149.036 178.191 149.346 180.04 150.411C183.318 152.364 186.008 157.201 186.008 161.15C186.008 163.324 185.251 165.055 184.033 165.587" stroke="url(#paint41_linear_0_1)" stroke-width="2" stroke-miterlimit="10"/>
<path d="M166.047 163.369L166.173 177.746L154.28 170.646L154.154 156.269L166.047 163.369Z" fill="url(#paint42_linear_0_1)"/>
<path d="M166.047 163.369L167.139 162.703L167.265 177.036L166.173 177.746L166.047 163.369Z" fill="url(#paint43_linear_0_1)"/>
<path d="M154.154 156.269L155.204 155.603L167.139 162.703L166.047 163.369L154.154 156.269Z" fill="url(#paint44_linear_0_1)"/>
<path d="M153.607 155.958L166.047 163.369L166.215 180.542" stroke="url(#paint45_linear_0_1)" stroke-width="2" stroke-miterlimit="10"/>
<path opacity="0.6" d="M159.533 166.83L116.795 193.366" stroke="url(#paint46_linear_0_1)" stroke-width="2" stroke-linecap="round" stroke-linejoin="round"/>
<path opacity="0.6" d="M179.284 158.354L104.734 204.637" stroke="url(#paint47_linear_0_1)" stroke-width="2" stroke-linecap="round" stroke-linejoin="round"/>
<path opacity="0.6" d="M111.668 161.549L137.765 145.308" stroke="url(#paint48_linear_0_1)" stroke-width="2" stroke-linecap="round" stroke-linejoin="round"/>
<path d="M160.037 116.864C160.079 123.387 163.651 129.999 171.888 134.924C179.032 139.184 188.109 141.447 197.354 141.758C197.692 141.77 198.013 141.92 198.248 142.176C198.484 142.433 198.615 142.776 198.615 143.134L198.699 155.292C198.705 155.485 198.673 155.676 198.605 155.854C198.537 156.032 198.435 156.194 198.304 156.327C198.173 156.461 198.018 156.565 197.847 156.631C197.676 156.697 197.494 156.725 197.312 156.712C188.109 156.402 179.074 154.094 171.972 149.879C163.735 144.953 160.163 138.386 160.121 131.818L160.037 116.864Z" stroke="#8A9ADC" stroke-width="2" stroke-linecap="round" stroke-linejoin="round"/>
<path d="M202.103 93.1231C201.729 92.911 201.309 92.8041 200.884 92.8125L188.025 92.9012C187.1 92.9012 186.302 93.3894 186.344 93.9662L186.428 101.865C186.443 102.026 186.497 102.18 186.586 102.313C186.674 102.445 186.793 102.551 186.932 102.619C187.307 102.831 187.726 102.938 188.151 102.93L201.01 102.841C201.935 102.841 202.691 102.353 202.691 101.776L202.607 93.9219C202.6 93.7529 202.549 93.5894 202.46 93.4486C202.371 93.3079 202.248 93.1954 202.103 93.1231V93.1231ZM212.903 87.4431C212.888 87.2819 212.834 87.1276 212.746 86.9953C212.657 86.8631 212.538 86.7574 212.399 86.6887C212.024 86.4767 211.605 86.3697 211.18 86.3781H205.423C204.498 86.3781 203.7 86.8662 203.742 87.4431V91.0375C203.757 91.1987 203.811 91.353 203.899 91.4853C203.988 91.6176 204.107 91.7232 204.246 91.7919C204.621 92.0039 205.04 92.1109 205.465 92.1025H211.222C212.147 92.1025 212.903 91.6144 212.903 91.0375V87.4431Z" fill="#CF3239"/>
<path d="M199.372 273.377C199.372 273.517 199.215 273.63 199.016 273.63C198.79 273.651 198.632 273.538 198.632 273.377C198.632 273.236 198.79 273.124 198.988 273.124C199.194 273.103 199.372 273.215 199.372 273.377ZM197.24 273.06C197.192 273.201 197.329 273.363 197.535 273.405C197.713 273.475 197.919 273.405 197.96 273.264C198.001 273.124 197.871 272.962 197.665 272.899C197.487 272.849 197.288 272.92 197.24 273.06ZM200.27 272.941C200.071 272.99 199.934 273.124 199.955 273.285C199.975 273.426 200.154 273.517 200.359 273.468C200.558 273.419 200.695 273.285 200.675 273.145C200.654 273.011 200.469 272.92 200.27 272.941ZM204.781 246C195.273 246 188 253.403 188 263.154C188 270.951 192.785 277.623 199.619 279.971C200.496 280.133 200.805 279.578 200.805 279.121C200.805 278.685 200.784 276.28 200.784 274.804C200.784 274.804 195.986 275.859 194.978 272.709C194.978 272.709 194.197 270.663 193.073 270.136C193.073 270.136 191.503 269.032 193.182 269.053C193.182 269.053 194.889 269.194 195.828 270.867C197.329 273.581 199.845 272.8 200.825 272.336C200.983 271.211 201.429 270.431 201.922 269.967C198.09 269.531 194.224 268.962 194.224 262.198C194.224 260.265 194.745 259.295 195.842 258.057C195.664 257.6 195.081 255.716 196.02 253.284C197.453 252.827 200.75 255.182 200.75 255.182C202.121 254.788 203.595 254.584 205.055 254.584C206.515 254.584 207.989 254.788 209.36 255.182C209.36 255.182 212.657 252.82 214.09 253.284C215.029 255.723 214.446 257.6 214.268 258.057C215.365 259.302 216.036 260.272 216.036 262.198C216.036 268.983 211.999 269.524 208.167 269.967C208.798 270.522 209.332 271.577 209.332 273.229C209.332 275.598 209.312 278.53 209.312 279.107C209.312 279.564 209.627 280.119 210.498 279.957C217.352 277.623 222 270.951 222 263.154C222 253.403 214.288 246 204.781 246ZM194.663 270.248C194.574 270.318 194.594 270.48 194.711 270.614C194.821 270.726 194.978 270.775 195.067 270.684C195.156 270.614 195.136 270.452 195.019 270.318C194.91 270.206 194.752 270.157 194.663 270.248ZM193.923 269.679C193.875 269.77 193.943 269.883 194.08 269.953C194.19 270.023 194.327 270.002 194.375 269.904C194.423 269.812 194.354 269.7 194.217 269.629C194.08 269.587 193.971 269.608 193.923 269.679ZM196.144 272.182C196.034 272.273 196.075 272.484 196.233 272.617C196.39 272.779 196.589 272.8 196.678 272.688C196.767 272.596 196.726 272.385 196.589 272.252C196.438 272.09 196.233 272.069 196.144 272.182ZM195.362 271.148C195.252 271.218 195.252 271.401 195.362 271.563C195.472 271.725 195.657 271.795 195.746 271.725C195.856 271.633 195.856 271.45 195.746 271.289C195.65 271.127 195.472 271.057 195.362 271.148Z" fill="#FF5B66"/>
<path d="M156 249.643V276.357C156 278.369 154.369 280 152.357 280H125.643C123.631 280 122 278.369 122 276.357V249.643C122 247.631 123.631 246 125.643 246H152.357C154.369 246 156 247.631 156 249.643ZM149.321 250.857H140.824C139.206 250.857 138.389 252.82 139.536 253.967L141.963 256.394L127.124 271.233C126.768 271.589 126.768 272.166 127.124 272.521L129.479 274.876C129.834 275.232 130.411 275.232 130.767 274.876L145.606 260.037L148.033 262.465C149.174 263.605 151.143 262.805 151.143 261.177V252.679C151.143 251.673 150.327 250.857 149.321 250.857Z" fill="#FF5B66"/>
<path d="M289.758 253.225C289.35 251.562 288.147 250.252 286.62 249.808C283.851 249 272.75 249 272.75 249C272.75 249 261.649 249 258.88 249.808C257.353 250.252 256.15 251.562 255.742 253.225C255 256.239 255 262.527 255 262.527C255 262.527 255 268.816 255.742 271.83C256.15 273.493 257.353 274.748 258.88 275.192C261.649 276 272.75 276 272.75 276C272.75 276 283.851 276 286.62 275.192C288.147 274.748 289.35 273.493 289.758 271.83C290.5 268.816 290.5 262.527 290.5 262.527C290.5 262.527 290.5 256.239 289.758 253.225V253.225ZM269.119 268.237V256.818L278.398 262.527L269.119 268.237V268.237Z" fill="#FF5B66"/>
<defs>
<filter id="filter0_d_0_1" x="85" y="54" width="241" height="250" filterUnits="userSpaceOnUse" color-interpolation-filters="sRGB">
<feFlood flood-opacity="0" result="BackgroundImageFix"/>
<feColorMatrix in="SourceAlpha" type="matrix" values="0 0 0 0 0 0 0 0 0 0 0 0 0 0 0 0 0 0 127 0" result="hardAlpha"/>
<feOffset dy="4"/>
<feGaussianBlur stdDeviation="2"/>
<feComposite in2="hardAlpha" operator="out"/>
<feColorMatrix type="matrix" values="0 0 0 0 0 0 0 0 0 0 0 0 0 0 0 0 0 0 0.25 0"/>
<feBlend mode="normal" in2="BackgroundImageFix" result="effect1_dropShadow_0_1"/>
<feBlend mode="normal" in="SourceGraphic" in2="effect1_dropShadow_0_1" result="shape"/>
</filter>
<linearGradient id="paint0_linear_0_1" x1="150.24" y1="137.299" x2="131.847" y2="137.451" gradientUnits="userSpaceOnUse">
<stop stop-color="#336AFF"/>
<stop offset="1" stop-color="#E3FFFF"/>
</linearGradient>
<linearGradient id="paint1_linear_0_1" x1="274.011" y1="153.243" x2="291.551" y2="153.098" gradientUnits="userSpaceOnUse">
<stop stop-color="#336AFF"/>
<stop offset="1" stop-color="#E3FFFF"/>
</linearGradient>
<linearGradient id="paint2_linear_0_1" x1="150.023" y1="169.039" x2="121.818" y2="169.272" gradientUnits="userSpaceOnUse">
<stop stop-color="#336AFF"/>
<stop offset="1" stop-color="#E3FFFF"/>
</linearGradient>
<linearGradient id="paint3_linear_0_1" x1="236.86" y1="199.507" x2="336.958" y2="198.679" gradientUnits="userSpaceOnUse">
<stop stop-color="#336AFF"/>
<stop offset="1" stop-color="#E3FFFF"/>
</linearGradient>
<linearGradient id="paint4_linear_0_1" x1="144.465" y1="204.871" x2="257.876" y2="203.934" gradientUnits="userSpaceOnUse">
<stop stop-color="#89B6FF"/>
<stop offset="0.16" stop-color="#5084FF"/>
<stop offset="0.31" stop-color="#5084FF"/>
<stop offset="0.47" stop-color="#89B6FF"/>
<stop offset="0.84" stop-color="#5084FF"/>
</linearGradient>
<linearGradient id="paint5_linear_0_1" x1="111.044" y1="157.292" x2="310.773" y2="155.641" gradientUnits="userSpaceOnUse">
<stop stop-color="#D0D2FF"/>
<stop offset="0.42" stop-color="#DFF6FF"/>
<stop offset="0.52" stop-color="#D0D2FF"/>
<stop offset="0.59" stop-color="#CBE4FF"/>
<stop offset="0.67" stop-color="#E3F6FF"/>
<stop offset="0.69" stop-color="#E0F4FF"/>
<stop offset="0.71" stop-color="#DEF3FF"/>
<stop offset="1" stop-color="#B4D6FF"/>
</linearGradient>
<linearGradient id="paint6_linear_0_1" x1="132.14" y1="157.098" x2="303.512" y2="155.681" gradientUnits="userSpaceOnUse">
<stop stop-color="#6FA0FF"/>
<stop offset="0.26" stop-color="#89B5FF"/>
<stop offset="0.82" stop-color="#CCECFF"/>
<stop offset="1" stop-color="#E3FFFF"/>
</linearGradient>
<linearGradient id="paint7_linear_0_1" x1="226.969" y1="117.811" x2="170.239" y2="76.5893" gradientUnits="userSpaceOnUse">
<stop stop-color="#8A9ADC" stop-opacity="0"/>
<stop offset="1" stop-color="#8A9ADC" stop-opacity="0.9"/>
</linearGradient>
<linearGradient id="paint8_linear_0_1" x1="160.491" y1="146.497" x2="239.976" y2="145.84" gradientUnits="userSpaceOnUse">
<stop stop-color="#8A9ADC" stop-opacity="0.9"/>
<stop offset="0.41" stop-color="#8A9ADC" stop-opacity="0"/>
<stop offset="0.71" stop-color="#8A9ADC" stop-opacity="0.6"/>
<stop offset="0.76" stop-color="#8A9ADC" stop-opacity="0"/>
<stop offset="0.79" stop-color="#8A9ADC" stop-opacity="0.05"/>
<stop offset="0.83" stop-color="#8A9ADC" stop-opacity="0.19"/>
<stop offset="0.89" stop-color="#8A9ADC" stop-opacity="0.41"/>
<stop offset="0.96" stop-color="#8A9ADC" stop-opacity="0.71"/>
<stop offset="1" stop-color="#8A9ADC" stop-opacity="0.9"/>
</linearGradient>
<linearGradient id="paint9_linear_0_1" x1="234.984" y1="158.116" x2="244.343" y2="158.039" gradientUnits="userSpaceOnUse">
<stop offset="0.14" stop-color="#4680C1"/>
<stop offset="1" stop-color="#4680C1" stop-opacity="0.4"/>
</linearGradient>
<linearGradient id="paint10_linear_0_1" x1="181.916" y1="145.634" x2="191.409" y2="169.523" gradientUnits="userSpaceOnUse">
<stop stop-color="#4680C1"/>
<stop offset="1" stop-color="#4680C1" stop-opacity="0.4"/>
</linearGradient>
<linearGradient id="paint11_linear_0_1" x1="136.995" y1="136.981" x2="165.915" y2="136.742" gradientUnits="userSpaceOnUse">
<stop stop-color="#9E9E9E" stop-opacity="0"/>
<stop offset="0.78" stop-color="#9E9E9E" stop-opacity="0.4"/>
<stop offset="1" stop-color="#9CBACB"/>
</linearGradient>
<linearGradient id="paint12_linear_0_1" x1="120.603" y1="195.226" x2="115.71" y2="186.331" gradientUnits="userSpaceOnUse">
<stop stop-color="#FF7A88"/>
<stop offset="1" stop-color="#FFC7CA"/>
</linearGradient>
<linearGradient id="paint13_linear_0_1" x1="123.929" y1="193.358" x2="118.972" y2="182.026" gradientUnits="userSpaceOnUse">
<stop stop-color="#FFA0A8"/>
<stop offset="1" stop-color="#FF3C5C"/>
</linearGradient>
<linearGradient id="paint14_linear_0_1" x1="127.831" y1="192.102" x2="113.425" y2="183.07" gradientUnits="userSpaceOnUse">
<stop stop-color="#FFC7CA"/>
<stop offset="0.29" stop-color="#FFE5E6"/>
<stop offset="0.55" stop-color="#FFF8F9"/>
<stop offset="0.73" stop-color="white"/>
</linearGradient>
<linearGradient id="paint15_linear_0_1" x1="88.2612" y1="196.807" x2="118.026" y2="196.561" gradientUnits="userSpaceOnUse">
<stop stop-color="#9E9E9E" stop-opacity="0"/>
<stop offset="0.78" stop-color="#9E9E9E" stop-opacity="0.4"/>
<stop offset="1" stop-color="#9CBACB"/>
</linearGradient>
<linearGradient id="paint16_linear_0_1" x1="171.283" y1="137.853" x2="173.156" y2="134.907" gradientUnits="userSpaceOnUse">
<stop stop-color="#9AA9FF"/>
<stop offset="1" stop-color="#6070DF"/>
</linearGradient>
<linearGradient id="paint17_linear_0_1" x1="183.037" y1="142.441" x2="177.666" y2="130.162" gradientUnits="userSpaceOnUse">
<stop stop-color="#9AA9FF"/>
<stop offset="1" stop-color="#6070DF"/>
</linearGradient>
<linearGradient id="paint18_linear_0_1" x1="176.658" y1="130.811" x2="172.069" y2="120.328" gradientUnits="userSpaceOnUse">
<stop stop-color="#9AA9FF"/>
<stop offset="1" stop-color="#4E5EBE"/>
</linearGradient>
<linearGradient id="paint19_linear_0_1" x1="184.208" y1="140.713" x2="163.775" y2="127.906" gradientUnits="userSpaceOnUse">
<stop offset="0.27" stop-color="white"/>
<stop offset="0.39" stop-color="#F8F9FF"/>
<stop offset="0.56" stop-color="#E5E9FF"/>
<stop offset="0.77" stop-color="#C6CEFF"/>
<stop offset="1" stop-color="#9AA9FF"/>
</linearGradient>
<linearGradient id="paint20_linear_0_1" x1="166.005" y1="149.632" x2="156.78" y2="136.12" gradientUnits="userSpaceOnUse">
<stop stop-color="#FF7A88"/>
<stop offset="1" stop-color="#FFC7CA"/>
</linearGradient>
<linearGradient id="paint21_linear_0_1" x1="166.039" y1="149.69" x2="165.901" y2="134.66" gradientUnits="userSpaceOnUse">
<stop stop-color="#FF3C5C"/>
<stop offset="1" stop-color="#FFA0A8"/>
</linearGradient>
<linearGradient id="paint22_linear_0_1" x1="153.483" y1="131.513" x2="166.422" y2="131.406" gradientUnits="userSpaceOnUse">
<stop stop-color="#FFA0A8"/>
<stop offset="1" stop-color="#FF3C5C"/>
</linearGradient>
<linearGradient id="paint23_linear_0_1" x1="155.786" y1="146.252" x2="164.085" y2="133.912" gradientUnits="userSpaceOnUse">
<stop stop-color="#FFC7CA"/>
<stop offset="0.29" stop-color="#FFE5E6"/>
<stop offset="0.55" stop-color="#FFF8F9"/>
<stop offset="0.73" stop-color="white"/>
</linearGradient>
<linearGradient id="paint24_linear_0_1" x1="130.015" y1="152.262" x2="177.727" y2="151.868" gradientUnits="userSpaceOnUse">
<stop stop-color="#9E9E9E" stop-opacity="0.4"/>
<stop offset="0.78" stop-color="#9E9E9E" stop-opacity="0.4"/>
<stop offset="1" stop-color="#9CBACB"/>
</linearGradient>
<linearGradient id="paint25_linear_0_1" x1="142.451" y1="144.218" x2="159.626" y2="144.076" gradientUnits="userSpaceOnUse">
<stop stop-color="white" stop-opacity="0.6"/>
<stop offset="0.28" stop-color="#DADADA" stop-opacity="0.52"/>
<stop offset="0.78" stop-color="#9E9E9E" stop-opacity="0.4"/>
<stop offset="1" stop-color="#9CBACB"/>
</linearGradient>
<linearGradient id="paint26_linear_0_1" x1="131.46" y1="160.429" x2="138.036" y2="170.893" gradientUnits="userSpaceOnUse">
<stop stop-color="#F895D4"/>
<stop offset="1" stop-color="#F065C1"/>
</linearGradient>
<linearGradient id="paint27_linear_0_1" x1="140.717" y1="175.471" x2="140.579" y2="160.437" gradientUnits="userSpaceOnUse">
<stop stop-color="#F895D4"/>
<stop offset="1" stop-color="#B0458D"/>
</linearGradient>
<linearGradient id="paint28_linear_0_1" x1="128.166" y1="157.294" x2="141.1" y2="157.187" gradientUnits="userSpaceOnUse">
<stop stop-color="#B0458D"/>
<stop offset="1" stop-color="#F895D4"/>
</linearGradient>
<linearGradient id="paint29_linear_0_1" x1="129.386" y1="166.664" x2="141.106" y2="164.807" gradientUnits="userSpaceOnUse">
<stop offset="0.27" stop-color="white"/>
<stop offset="0.39" stop-color="#FFFAFD"/>
<stop offset="0.55" stop-color="#FEEAF7"/>
<stop offset="0.71" stop-color="#FCD1EC"/>
<stop offset="0.89" stop-color="#FAAEDE"/>
<stop offset="1" stop-color="#F895D4"/>
</linearGradient>
<linearGradient id="paint30_linear_0_1" x1="141.54" y1="154.952" x2="134.027" y2="139.767" gradientUnits="userSpaceOnUse">
<stop stop-color="#6F84FF"/>
<stop offset="1" stop-color="#9AA9FF"/>
</linearGradient>
<linearGradient id="paint31_linear_0_1" x1="139.744" y1="137.994" x2="144.18" y2="149.625" gradientUnits="userSpaceOnUse">
<stop stop-color="#4E5EBE"/>
<stop offset="1" stop-color="#9AA9FF"/>
</linearGradient>
<linearGradient id="paint32_linear_0_1" x1="137.759" y1="144.975" x2="145.184" y2="144.914" gradientUnits="userSpaceOnUse">
<stop offset="0.27" stop-color="white"/>
<stop offset="0.39" stop-color="#F8F9FF"/>
<stop offset="0.56" stop-color="#E5E9FF"/>
<stop offset="0.77" stop-color="#C6CEFF"/>
<stop offset="1" stop-color="#9AA9FF"/>
</linearGradient>
<linearGradient id="paint33_linear_0_1" x1="96.0895" y1="176.348" x2="134.133" y2="176.033" gradientUnits="userSpaceOnUse">
<stop stop-color="#9E9E9E" stop-opacity="0"/>
<stop offset="0.78" stop-color="#9E9E9E" stop-opacity="0.4"/>
<stop offset="1" stop-color="#9CBACB"/>
</linearGradient>
<linearGradient id="paint34_linear_0_1" x1="193.963" y1="149.96" x2="197.492" y2="142.845" gradientUnits="userSpaceOnUse">
<stop stop-color="#FF9EA9"/>
<stop offset="1" stop-color="#FF3C5C"/>
</linearGradient>
<linearGradient id="paint35_linear_0_1" x1="194.739" y1="138.579" x2="199.179" y2="150.209" gradientUnits="userSpaceOnUse">
<stop offset="0.29" stop-color="#FF3C5C"/>
<stop offset="1" stop-color="#FFA0A8"/>
</linearGradient>
<linearGradient id="paint36_linear_0_1" x1="192.754" y1="145.56" x2="200.179" y2="145.499" gradientUnits="userSpaceOnUse">
<stop stop-color="#FFC7CA"/>
<stop offset="0.29" stop-color="#FFE5E6"/>
<stop offset="0.55" stop-color="#FFF8F9"/>
<stop offset="0.73" stop-color="white"/>
</linearGradient>
<linearGradient id="paint37_linear_0_1" x1="153.028" y1="158.29" x2="192.583" y2="157.963" gradientUnits="userSpaceOnUse">
<stop stop-color="#9E9E9E" stop-opacity="0"/>
<stop offset="0.78" stop-color="#9E9E9E" stop-opacity="0.4"/>
<stop offset="1" stop-color="#9CBACB"/>
</linearGradient>
<linearGradient id="paint38_linear_0_1" x1="79.8511" y1="171.798" x2="185.273" y2="170.927" gradientUnits="userSpaceOnUse">
<stop stop-color="#9E9E9E" stop-opacity="0"/>
<stop offset="0.78" stop-color="#9E9E9E" stop-opacity="0.4"/>
<stop offset="1" stop-color="#9CBACB"/>
</linearGradient>
<linearGradient id="paint39_linear_0_1" x1="180.133" y1="152.608" x2="187.115" y2="161.863" gradientUnits="userSpaceOnUse">
<stop stop-color="#B0458D"/>
<stop offset="1" stop-color="#F895D4"/>
</linearGradient>
<linearGradient id="paint40_linear_0_1" x1="177.047" y1="152.397" x2="183.916" y2="162.601" gradientUnits="userSpaceOnUse">
<stop stop-color="#F895D4"/>
<stop offset="1" stop-color="#F065C1"/>
</linearGradient>
<linearGradient id="paint41_linear_0_1" x1="175.038" y1="157.51" x2="186.498" y2="157.415" gradientUnits="userSpaceOnUse">
<stop offset="0.27" stop-color="white"/>
<stop offset="0.39" stop-color="#FFF8FC"/>
<stop offset="0.55" stop-color="#FDE5F4"/>
<stop offset="0.75" stop-color="#FBC6E8"/>
<stop offset="0.97" stop-color="#F89AD6"/>
<stop offset="1" stop-color="#F895D4"/>
</linearGradient>
<linearGradient id="paint42_linear_0_1" x1="160.234" y1="171.653" x2="159.741" y2="160.606" gradientUnits="userSpaceOnUse">
<stop stop-color="#6F84FF"/>
<stop offset="1" stop-color="#9AA9FF"/>
</linearGradient>
<linearGradient id="paint43_linear_0_1" x1="166.808" y1="177.653" x2="166.67" y2="162.62" gradientUnits="userSpaceOnUse">
<stop stop-color="#9AA9FF"/>
<stop offset="1" stop-color="#4E5EBE"/>
</linearGradient>
<linearGradient id="paint44_linear_0_1" x1="154.252" y1="159.477" x2="167.191" y2="159.37" gradientUnits="userSpaceOnUse">
<stop stop-color="#4E5EBE"/>
<stop offset="1" stop-color="#9AA9FF"/>
</linearGradient>
<linearGradient id="paint45_linear_0_1" x1="157.508" y1="168.983" x2="167.454" y2="165.833" gradientUnits="userSpaceOnUse">
<stop offset="0.27" stop-color="white"/>
<stop offset="0.39" stop-color="#F8F9FF"/>
<stop offset="0.56" stop-color="#E5E9FF"/>
<stop offset="0.77" stop-color="#C6CEFF"/>
<stop offset="1" stop-color="#9AA9FF"/>
</linearGradient>
<linearGradient id="paint46_linear_0_1" x1="116.378" y1="180.266" x2="160.132" y2="179.904" gradientUnits="userSpaceOnUse">
<stop stop-color="#9E9E9E" stop-opacity="0"/>
<stop offset="0.78" stop-color="#9E9E9E" stop-opacity="0.4"/>
<stop offset="1" stop-color="#9CBACB"/>
</linearGradient>
<linearGradient id="paint47_linear_0_1" x1="104.25" y1="181.789" x2="179.995" y2="181.163" gradientUnits="userSpaceOnUse">
<stop stop-color="#9E9E9E" stop-opacity="0"/>
<stop offset="0.78" stop-color="#9E9E9E" stop-opacity="0.4"/>
<stop offset="1" stop-color="#9CBACB"/>
</linearGradient>
<linearGradient id="paint48_linear_0_1" x1="111.257" y1="153.509" x2="138.319" y2="153.286" gradientUnits="userSpaceOnUse">
<stop stop-color="#9E9E9E" stop-opacity="0"/>
<stop offset="0.78" stop-color="#9E9E9E" stop-opacity="0.4"/>
<stop offset="1" stop-color="#9CBACB"/>
</linearGradient>
</defs>
</svg>
